<svg id="Layer_1" data-name="Layer 1" xmlns="http://www.w3.org/2000/svg" viewBox="0 0 357.36 61.96"><path d="M561.23,354.6a22.33,22.33,0,0,1,0,44.65H527.35v14.41h-23V354.6Zm-5.76,27.33a5,5,0,0,0,5-5,5.11,5.11,0,0,0-5-5.05H527.35v10.06Z" transform="translate(-504.32 -353.06)"/><path d="M605.13,354.6h27.38l31.68,59.06H638.26l-4.65-10.1H604l-4.66,10.1H573.44Zm5.58,34.54h16.22l-8.09-17.44Z" transform="translate(-504.32 -353.06)"/><path d="M722.86,354.56a22.28,22.28,0,0,1,22.32,22.32A21.5,21.5,0,0,1,741.62,389a22.16,22.16,0,0,1-9.31,8.08l12.87,16.57H720.66l-11.12-14.41H689v14.41H666V354.56ZM689,371.83v10.06h28.08a5,5,0,0,0,5.05-5,5,5,0,0,0-5.05-5.05Z" transform="translate(-504.32 -353.06)"/><path d="M775.33,354.51v59.07h-23V354.51Z" transform="translate(-504.32 -353.06)"/><path d="M822.09,377.36c16.48.84,39.64,2,39.59,16.79C861.68,411,842.35,415,821.6,415s-37.88-2.55-40.07-20.88h24.12c2.64,4.57,8.75,5.76,16,5.76s16-1.19,16-5.76c0-2.59-7.17-3-16.44-3.43-16.48-.83-39.64-2-39.59-16.74,0-16.87,19.33-20.92,40.07-20.92s37.88,2.46,40.08,20.92H837.56c-2.64-4.66-8.75-5.76-16-5.76s-16,1.06-16,5.76C805.65,376.57,812.81,376.92,822.09,377.36Z" transform="translate(-504.32 -353.06)"/></svg>