<svg id="Layer_1" data-name="Layer 1" xmlns="http://www.w3.org/2000/svg" viewBox="0 0 361.72 49.57"><path d="M547.67,360.45a17.86,17.86,0,0,1,0,35.71H520.56V407.7H502.14V360.45Zm-4.61,21.86a3.81,3.81,0,0,0,2.81-1.16,3.89,3.89,0,0,0,1.2-2.85,4.1,4.1,0,0,0-4-4h-22.5v8.05Z" transform="translate(-502.14 -359.21)"/><path d="M616,360.45a17.86,17.86,0,1,1,0,35.71h-27.1V407.7H570.52V360.45Zm-4.6,21.86a3.81,3.81,0,0,0,2.81-1.16,3.89,3.89,0,0,0,1.2-2.85,4.1,4.1,0,0,0-4-4h-22.5v8.05Z" transform="translate(-502.14 -359.21)"/><path d="M670.18,378.66c13.19.66,31.72,1.58,31.68,13.43,0,13.5-15.47,16.7-32.06,16.7s-30.31-2-32.06-16.7H657c2.11,3.65,7,4.6,12.76,4.6s12.76-.95,12.76-4.6c0-2.08-5.73-2.39-13.15-2.75-13.18-.66-31.71-1.58-31.67-13.39,0-13.5,15.46-16.74,32.06-16.74s30.3,2,32.06,16.74h-19.3c-2.11-3.73-7-4.61-12.76-4.61S657,372.19,657,376C657,378,662.77,378.3,670.18,378.66Z" transform="translate(-502.14 -359.21)"/><path d="M706.78,360.38h23.07L748.27,384l18.45-23.62h23v47.24H771.33v-25.2l-18.46,25.2h-9.21l-18.46-25.2v25.2H706.78Z" transform="translate(-502.14 -359.21)"/><path d="M863.86,395c.11,8.27-6.85,12.7-15,12.7H800.47V360.45H845.4c8.2,0,15.12,4.43,15,12.65a11.57,11.57,0,0,1-5.49,10.16C860.27,385,863.86,389.06,863.86,395Zm-45-23.34V378h21.34a3.2,3.2,0,0,0,0-6.36Zm24.78,24.79a3.18,3.18,0,0,0,0-6.33H818.9v6.33Z" transform="translate(-502.14 -359.21)"/></svg>