<svg id="Layer_1" data-name="Layer 1" xmlns="http://www.w3.org/2000/svg" viewBox="0 0 329.03 49.57"><path d="M564,360.45a17.86,17.86,0,1,1,0,35.71h-27.1V407.7H518.49V360.45Zm-4.6,21.86a3.81,3.81,0,0,0,2.81-1.16,3.89,3.89,0,0,0,1.2-2.85,4.1,4.1,0,0,0-4-4h-22.5v8.05Z" transform="translate(-518.49 -359.21)"/><path d="M605.29,360.38v47.24H586.86V360.38Z" transform="translate(-518.49 -359.21)"/><path d="M675.21,382.28v3.44c.07,17.86-14.48,23-32.24,23.07s-32.34-5.21-32.27-23.07v-3.44c-.07-17.9,14.48-23,32.27-23.07S675.21,364.42,675.21,382.28Zm-18.42,1.12c.11-7.7-6.29-9.1-13.82-9.21-7.55.11-14,1.51-13.85,9.21v1.16c-.1,7.74,6.3,9.14,13.85,9.25,7.53-.11,13.93-1.51,13.82-9.25Z" transform="translate(-518.49 -359.21)"/><path d="M726.75,360.38h18.46v47.24H724.47l-25.39-28.86v28.86H680.66V360.38H706l20.74,25Z" transform="translate(-518.49 -359.21)"/><path d="M774.35,360.38v47.24H755.93V360.38Z" transform="translate(-518.49 -359.21)"/><path d="M829.65,360.41a17.84,17.84,0,0,1,17.86,17.86,17.31,17.31,0,0,1-2.84,9.67,17.79,17.79,0,0,1-7.46,6.47l10.3,13.25H827.9L819,396.13H802.55v11.53H784.13V360.41Zm-27.1,13.82v8H825a4,4,0,0,0,4-4,4,4,0,0,0-4-4Z" transform="translate(-518.49 -359.21)"/></svg>