<svg id="Layer_1" data-name="Layer 1" xmlns="http://www.w3.org/2000/svg" viewBox="0 0 727.31 49.57"><path d="M364.87,360.48a17.86,17.86,0,1,1,0,35.72h-27.1v11.53H319.34V360.48Zm-4.6,21.87a4,4,0,0,0,4-4,4.06,4.06,0,0,0-4-4h-22.5v8.05Z" transform="translate(-319.34 -359.25)"/><path d="M433.25,360.48a17.86,17.86,0,1,1,0,35.72H406.14v11.53H387.72V360.48Zm-4.61,21.87a4,4,0,0,0,4-4,4.06,4.06,0,0,0-4-4h-22.5v8.05Z" transform="translate(-319.34 -359.25)"/><path d="M487.39,378.69c13.18.67,31.71,1.58,31.68,13.43,0,13.5-15.47,16.7-32.07,16.7s-30.3-2-32.06-16.7h19.3c2.11,3.66,7,4.61,12.76,4.61s12.77-1,12.77-4.61c0-2.07-5.73-2.39-13.15-2.74-13.19-.67-31.71-1.58-31.68-13.4,0-13.5,15.47-16.73,32.06-16.73s30.31,2,32.07,16.73h-19.3c-2.11-3.72-7-4.6-12.77-4.6s-12.76.84-12.76,4.6C474.24,378.06,480,378.34,487.39,378.69Z" transform="translate(-319.34 -359.25)"/><path d="M524,360.41h23.06L565.47,384l18.46-23.63h23v47.25H588.54V382.45l-18.46,25.21h-9.21l-18.46-25.21v25.21H524Z" transform="translate(-319.34 -359.25)"/><path d="M681.07,395c.1,8.26-6.86,12.69-15,12.69H617.68V360.48h44.93c8.19,0,15.12,4.43,15,12.66a11.6,11.6,0,0,1-5.48,10.16C677.48,385,681.07,389.1,681.07,395Zm-45-23.34v6.36h21.34a3.19,3.19,0,0,0,2.88-3.2,3.15,3.15,0,0,0-2.88-3.16Zm24.79,24.78a3.18,3.18,0,0,0,0-6.33H636.1v6.33Z" transform="translate(-319.34 -359.25)"/><path d="M763.16,360.48a17.86,17.86,0,1,1,0,35.72H736.05v11.53H717.63V360.48Zm-4.61,21.87a4,4,0,0,0,4-4,3.78,3.78,0,0,0-1.2-2.85,3.73,3.73,0,0,0-2.81-1.19h-22.5v8.05Z" transform="translate(-319.34 -359.25)"/><path d="M804.43,360.41v47.25H786V360.41Z" transform="translate(-319.34 -359.25)"/><path d="M874.36,382.31v3.45c.07,17.86-14.49,23-32.24,23.06s-32.35-5.2-32.28-23.06v-3.45c-.07-17.89,14.49-23,32.28-23.06S874.36,364.45,874.36,382.31Zm-18.43,1.13c.11-7.7-6.29-9.11-13.81-9.21-7.56.1-14,1.51-13.85,9.21v1.16c-.11,7.73,6.29,9.14,13.85,9.24,7.52-.1,13.92-1.51,13.81-9.24Z" transform="translate(-319.34 -359.25)"/><path d="M925.89,360.41h18.46v47.25H923.61L898.23,378.8v28.86H879.8V360.41h25.35l20.74,25Z" transform="translate(-319.34 -359.25)"/><path d="M973.5,360.41v47.25H955.07V360.41Z" transform="translate(-319.34 -359.25)"/><path d="M1028.8,360.45a17.83,17.83,0,0,1,17.86,17.85,17.19,17.19,0,0,1-2.85,9.67,17.7,17.7,0,0,1-7.45,6.47l10.3,13.26H1027l-8.9-11.54h-16.45V407.7H983.27V360.45Zm-27.11,13.81v8.05h22.47a3.83,3.83,0,0,0,2.84-1.16,3.89,3.89,0,0,0,1.2-2.85,4,4,0,0,0-4-4Z" transform="translate(-319.34 -359.25)"/></svg>